<svg xmlns="http://www.w3.org/2000/svg" viewBox="0 0 54 54" width="64" height="64" role="img" focusable="false" preserveAspectRatio="xMidYMid meet">
  <title>BookShare</title>
  <circle cx="27" cy="27" r="26" fill="#FEBA45"/>
  <path transform="translate(27 27) scale(1.12) translate(-27 -27)" d="M14.84 13H26.8C30.5067 13 33.28 13.5067 35.12 14.52C36.9867 15.5067 37.92 17.1867 37.92 19.56C37.92 23.2133 35.72 25.4 31.32 26.12V26.2C36.6533 26.8667 39.32 29.1867 39.32 33.16C39.32 36.0667 38.2267 38.1067 36.04 39.28C33.8533 40.4267 30.7067 41 26.6 41H14.84V40.24H17.44V13.76H14.84V13ZM25.24 26.84V40.24H27.12C28.5867 40.24 29.6133 39.7333 30.2 38.72C30.7867 37.7067 31.08 36.2133 31.08 34.24V32.12C31.08 30.36 30.72 29.04 30 28.16C29.28 27.28 28 26.84 26.16 26.84H25.24ZM25.24 13.76V26.08H26.28C27.6667 26.08 28.6267 25.6667 29.16 24.84C29.72 23.9867 30 22.6933 30 20.96V19.08C30 17.1067 29.76 15.7333 29.28 14.96C28.8 14.16 27.88 13.76 26.52 13.76H25.24Z" fill="black"/>
</svg>
